{"title":"Chalet Girl (2011) R5 Xvid {1337x}-X","uid":6387094,"size":733818880,"categoryP":"video","categoryS":"movies","magnet":"?xt=urn:btih:9b7b5b210fb5481f8794e15bad923f6eedc9d217&amp;dn=Chalet+Girl+%282011%29+R5+Xvid+%7B1337x%7D-X&amp;tr=udp%3A%2F%2Ftracker.openbittorrent.com%3A80&amp;tr=udp%3A%2F%2Fopen.demonii.com%3A1337&amp;tr=udp%3A%2F%2Ftracker.coppersurfer.tk%3A6969&amp;tr=udp%3A%2F%2Fexodus.desync.com%3A6969","seeders":2,"leechers":0,"uploader":".BONE.","files":1,"time":1305239510,"description":" &lt;a href=&quot;http://leetleech.org/images/02260101249631776450.jpg&quot; rel=&quot;nofollow&quot; target=&quot;_NEW&quot;&gt;http://leetleech.org/images/02260101249631776450.jpg&lt;/a&gt;\n\nVideo\nID : 0\nFormat : MPEG-4 Visual\nFormat profile : Advanced Simple@L5\nFormat settings, BVOP : Yes\nFormat settings, QPel : No\nFormat settings, GMC : No warppoints\nFormat settings, Matrix : Default (H.263)\nMuxing mode : Packed bitstream\nCodec ID : XVID\nCodec ID/Hint : XviD\nDuration : 1h 32mn\nBit rate : 942 Kbps\nWidth : 656 pixels\nHeight : 336 pixels\nDisplay aspect ratio : 1.952\nFrame rate : 25.000 fps\nColor space : YUV\nChroma subsampling : 4:2:0\nBit depth : 8 bits\nScan type : Progressive\nBits/(Pixel*Frame) : 0.171\nStream size : 624 MiB (89%)\nWriting library : XviD 57\n\nAudio\nID : 1\nFormat : MPEG Audio\nFormat version : Version 1\nFormat profile : Layer 3\nMode : Joint stereo\nMode extension : MS Stereo\nCodec ID : 55\nCodec ID/Hint : MP3\nDuration : 1h 32mn\nBit rate mode : Variable\nBit rate : 101 Kbps\nNominal bit rate : 112 Kbps\nChannel(s) : 2 channels\nSampling rate : 48.0 KHz\nStream size : 67.2 MiB (10%)\nAlignment : Aligned on interleaves\nInterleave, duration : 24 ms (0.60 video frame)\nInterleave, preload duration : 425 ms\nWriting library : LAME3.97\nEncoding settings : -m j -V 4 -q 2 -lowpass 16 --abr 112\n\nIMDB &lt;a href=&quot;\nhttp://www.imdb.com/title/tt1487118/&quot; rel=&quot;nofollow&quot; target=&quot;_NEW&quot;&gt;\nhttp://www.imdb.com/title/tt1487118/&lt;/a&gt;\n","torrent":{"xt":"urn:btih:9b7b5b210fb5481f8794e15bad923f6eedc9d217","amp;dn":"Chalet+Girl+%282011%29+R5+Xvid+%7B1337x%7D-X","amp;tr":["udp%3A%2F%2Ftracker.openbittorrent.com%3A80","udp%3A%2F%2Fopen.demonii.com%3A1337","udp%3A%2F%2Ftracker.coppersurfer.tk%3A6969","udp%3A%2F%2Fexodus.desync.com%3A6969"],"infoHash":"9b7b5b210fb5481f8794e15bad923f6eedc9d217","infoHashBuffer":{"type":"Buffer","data":[155,123,91,33,15,181,72,31,135,148,225,91,173,146,63,110,237,201,210,23]},"announce":[],"urlList":[]}}